# xmcd
#
# Track frame offsets:
#   150
#   20676
#   36495
#   57294
#   75054
#   89661
#
# Disc length: 1407 seconds
#
# Revision: 0
# Processed by: cddbd v1.5.2PL0 Copyright (c) Steve Scherf et al.
# Submitted via: GXTranscoder 2.0.1939
#
DISCID=43057d06
DTITLE=Klein Colonias - Nicht Normal
DYEAR=1900
DGENRE=Alternative
TTITLE0=Kattfillerland
TTITLE1=Super Karneval
TTITLE2=Nicht Normal
TTITLE3=Jeck Tön
TTITLE4=Direckt in die Sonne
TTITLE5=Chilli con Carneval
EXTD=
EXTT0=
EXTT1=
EXTT2=
EXTT3=
EXTT4=
EXTT5=
PLAYORDER=
